<svg width="50" height="20" viewBox="0 0 50 20" fill="none" xmlns="http://www.w3.org/2000/svg">
<path d="M10 13.1012L14.2287 8.87247L13.3705 8.04049L10 11.411L6.62954 8.04049L5.77128 8.87247L10 13.1012ZM10.0018 20C8.62946 20 7.3365 19.7375 6.12288 19.2126C4.90927 18.6877 3.84796 17.971 2.93895 17.0624C2.02993 16.1537 1.31285 15.0929 0.787713 13.8798C0.262571 12.6667 0 11.374 0 10.0018C0 8.61867 0.262457 7.31863 0.787371 6.10165C1.31228 4.88464 2.02904 3.82603 2.93764 2.9258C3.84626 2.02555 4.9071 1.31285 6.12017 0.787713C7.33326 0.262571 8.62595 0 9.99824 0C11.3813 0 12.6814 0.262457 13.8984 0.78737C15.1154 1.31228 16.174 2.02465 17.0742 2.92448C17.9744 3.82433 18.6871 4.88248 19.2123 6.09894C19.7374 7.31538 20 8.61514 20 9.99824C20 11.3705 19.7375 12.6635 19.2126 13.8771C18.6877 15.0907 17.9753 16.152 17.0755 17.061C16.1757 17.9701 15.1175 18.6871 13.9011 19.2123C12.6846 19.7374 11.3849 20 10.0018 20ZM10 18.8057C12.4507 18.8057 14.531 17.9481 16.2409 16.2328C17.9508 14.5176 18.8057 12.44 18.8057 10C18.8057 7.54926 17.9508 5.46895 16.2409 3.75909C14.531 2.04924 12.4507 1.19432 10 1.19432C7.56005 1.19432 5.48244 2.04924 3.76719 3.75909C2.05194 5.46895 1.19432 7.54926 1.19432 10C1.19432 12.44 2.05194 14.5176 3.76719 16.2328C5.48244 17.9481 7.56005 18.8057 10 18.8057Z" fill="black"/>
<path d="M40 6.89881L44.2287 11.1275L43.3705 11.9595L40 8.58905L36.6295 11.9595L35.7713 11.1275L40 6.89881ZM40.0018 2.87175e-07C38.6295 2.87175e-07 37.3365 0.262458 36.1229 0.787372C34.9093 1.31229 33.848 2.02904 32.939 2.93764C32.0299 3.84626 31.3129 4.9071 30.7877 6.12017C30.2626 7.33327 30 8.62595 30 9.99824C30 11.3813 30.2625 12.6814 30.7874 13.8984C31.3123 15.1154 32.029 16.174 32.9376 17.0742C33.8463 17.9745 34.9071 18.6871 36.1202 19.2123C37.3333 19.7374 38.626 20 39.9982 20C41.3813 20 42.6814 19.7375 43.8984 19.2126C45.1154 18.6877 46.174 17.9753 47.0742 17.0755C47.9744 16.1757 48.6871 15.1175 49.2123 13.9011C49.7374 12.6846 50 11.3849 50 10.0018C50 8.62946 49.7375 7.3365 49.2126 6.12289C48.6877 4.90927 47.9753 3.84796 47.0755 2.93896C46.1757 2.02994 45.1175 1.31286 43.9011 0.787716C42.6846 0.262574 41.3849 2.87175e-07 40.0018 2.87175e-07ZM40 1.19432C42.4507 1.19432 44.531 2.05195 46.2409 3.7672C47.9508 5.48245 48.8057 7.56005 48.8057 10C48.8057 12.4507 47.9508 14.531 46.2409 16.2409C44.531 17.9508 42.4507 18.8057 40 18.8057C37.56 18.8057 35.4824 17.9508 33.7672 16.2409C32.0519 14.531 31.1943 12.4507 31.1943 10C31.1943 7.56005 32.0519 5.48245 33.7672 3.7672C35.4824 2.05195 37.56 1.19432 40 1.19432Z" fill="black"/>
</svg>
