<svg width="50" height="20" viewBox="0 0 50 20" fill="none" xmlns="http://www.w3.org/2000/svg">
<path d="M9.46155 15H10.6558V10.6721H15V9.47773H10.6558V5.00001H9.46155V9.47773H5.00001V10.6721H9.46155V15ZM10.0088 20C8.62358 20 7.32624 19.7375 6.11673 19.2126C4.90721 18.6877 3.84796 17.971 2.93895 17.0624C2.02993 16.1537 1.31285 15.0943 0.787713 13.884C0.262571 12.6737 0 11.3753 0 9.9886C0 8.60869 0.262457 7.31163 0.787371 6.09744C1.31228 4.88324 2.02904 3.82603 2.93764 2.9258C3.84626 2.02555 4.9057 1.31285 6.11599 0.787713C7.32627 0.262571 8.62474 0 10.0114 0C11.3913 0 12.6884 0.262457 13.9026 0.78737C15.1168 1.31228 16.174 2.02465 17.0742 2.92448C17.9744 3.82433 18.6871 4.88248 19.2123 6.09894C19.7374 7.31538 20 8.61281 20 9.99124C20 11.3764 19.7375 12.6738 19.2126 13.8833C18.6877 15.0928 17.9753 16.1504 17.0755 17.0562C16.1757 17.962 15.1175 18.679 13.9011 19.2074C12.6846 19.7358 11.3872 20 10.0088 20ZM10.0132 18.8057C12.4551 18.8057 14.531 17.9481 16.2409 16.2328C17.9508 14.5176 18.8057 12.4356 18.8057 9.98684C18.8057 7.54487 17.9524 5.46895 16.2458 3.75909C14.5393 2.04924 12.4573 1.19432 10 1.19432C7.56005 1.19432 5.48244 2.0476 3.76719 3.75417C2.05194 5.46073 1.19432 7.54268 1.19432 10C1.19432 12.44 2.05194 14.5176 3.76719 16.2328C5.48244 17.9481 7.56443 18.8057 10.0132 18.8057Z" fill="black"/>
<path d="M35 10.5384H45V9.34416H35V10.5384ZM40.0018 20C38.6295 20 37.3365 19.7375 36.1229 19.2126C34.9093 18.6877 33.848 17.971 32.939 17.0624C32.0299 16.1537 31.3129 15.0929 30.7877 13.8798C30.2626 12.6667 30 11.374 30 10.0018C30 8.61867 30.2625 7.31863 30.7874 6.10165C31.3123 4.88464 32.029 3.82603 32.9376 2.9258C33.8463 2.02555 34.9071 1.31285 36.1202 0.787713C37.3333 0.262571 38.626 0 39.9982 0C41.3813 0 42.6814 0.262457 43.8984 0.78737C45.1154 1.31228 46.174 2.02465 47.0742 2.92448C47.9744 3.82433 48.6871 4.88248 49.2123 6.09894C49.7374 7.31538 50 8.61514 50 9.99824C50 11.3705 49.7375 12.6635 49.2126 13.8771C48.6877 15.0907 47.9753 16.152 47.0755 17.061C46.1757 17.9701 45.1175 18.6871 43.9011 19.2123C42.6846 19.7374 41.3849 20 40.0018 20ZM40 18.8057C42.4507 18.8057 44.531 17.9481 46.2409 16.2328C47.9508 14.5176 48.8057 12.44 48.8057 10C48.8057 7.54926 47.9508 5.46895 46.2409 3.75909C44.531 2.04924 42.4507 1.19432 40 1.19432C37.56 1.19432 35.4824 2.04924 33.7672 3.75909C32.0519 5.46895 31.1943 7.54926 31.1943 10C31.1943 12.44 32.0519 14.5176 33.7672 16.2328C35.4824 17.9481 37.56 18.8057 40 18.8057Z" fill="black"/>
</svg>
